<?xml version="1.0" encoding="UTF-8"?>
<svg id="Calque_1" xmlns="http://www.w3.org/2000/svg" version="1.1" viewBox="0 0 189 139.9">
  <!-- Generator: Adobe Illustrator 29.4.0, SVG Export Plug-In . SVG Version: 2.1.0 Build 152)  -->
  <g>
    <g>
      <path d="M178.2,119.6l-8.4,12.4c-1.1,1.6-2.9,3.2-5.1,3.4v.4h9.4c2.5,0,4.3-1.6,5.5-3.5l8.7-12.7h-10.1Z" fill="red"/>
      <path d="M22.8,135.7v-14.8h4.2v14.8h-4.2,0ZM120.8,135.7l-10.2-8.8v8.8h-3.6v-14.8h3l10.1,8.6v-8.6h3.6v14.8h-2.9ZM143,125.7c-1.9-1-4.1-1.7-6.9-1.7s-6,1.8-6,4.3,2.6,4.4,5.9,4.4,5-.7,7.1-2v3.7c-1.9,1-4.4,1.7-7.3,1.7-5.8,0-10.4-3-10.4-7.7s4.7-7.6,10.4-7.6,5.1.5,7.2,1.4v3.7ZM50.7,135.7v-14.8h14.2v3.2h-10v3.7h9.7v3.2h-9.7v4.8h-4.2ZM145.5,135.7v-14.8h14.7v3.2h-10.5v2.6h10.3v3.2h-10.3v2.7h10.4v3.2h-14.7ZM79.6,130.2l5.9,5.5h-4.5c-1,0-1.7-.3-2.2-.8l-4-3.9c0,0-.2-.1-.3-.1h-2.7v4.9h-4.2v-14.8h9.2c4.8,0,6.8,2.2,6.8,4.6s-2.5,4.1-3.8,4.6h0ZM76.2,127.8c1.7,0,2.5-.9,2.5-1.8s-.7-1.8-2.5-1.8h-4.5v3.6h4.5ZM43.2,130.2l5.9,5.5h-4.5c-1,0-1.7-.3-2.2-.8l-4-3.9c0,0-.2-.1-.3-.1h-2.7v4.9h-4.2v-14.8h9.2c4.8,0,6.8,2.2,6.8,4.6s-2.5,4.1-3.8,4.6M39.8,127.8c1.7,0,2.5-.9,2.5-1.8s-.7-1.8-2.5-1.8h-4.5v3.6h4.5ZM16.1,135.7l-1.9-3.2H6.1l-1.7,3.2H.4l8.1-14.8h3.7l9.2,14.8h-5.2ZM7.8,129.4h4.7l-2.5-4.5-2.3,4.5ZM101,135.7l-1.8-3.2h-7.9l-1.6,3.2h-3.9l7.9-14.8h3.6l8.9,14.8h-5.1ZM92.8,129.4h4.6l-2.4-4.5-2.2,4.5Z" fill="#051039"/>
    </g>
    <path d="M0,114.9h189v25H0v-25Z" fill="none"/>
  </g>
  <path d="M105.4,2.6l-60.1,88.3c-7.9,11.6-20.8,22.8-36.3,24v2.7h66.9c17.8,0,30.7-11.7,39.5-24.7L177.1,2.6h-71.7Z" fill="red"/>
</svg>