<?xml version="1.0" encoding="UTF-8"?><svg id="Calque_2" xmlns="http://www.w3.org/2000/svg" xmlns:xlink="http://www.w3.org/1999/xlink" viewBox="0 0 906.45 296.95"><defs><style>.cls-1{fill:url(#Dégradé_sans_nom_20);}</style><linearGradient id="Dégradé_sans_nom_20" x1="433.21" y1="98.68" x2="691.62" y2="73.93" gradientUnits="userSpaceOnUse"><stop offset="0" stop-color="#8a6134"/><stop offset="0" stop-color="#8a6132"/><stop offset="0" stop-color="#8b6132"/><stop offset="1" stop-color="#eaca84"/></linearGradient></defs><g id="Calque_1-2"><path d="m0,172.21V2.43h16.01v169.79H0Z"/><path d="m187,2.43h2.43v172.21h-2.43L54.57,5.34v166.88h-2.43V2.43h20.13l114.73,146.02V2.43Z"/><path d="m455,2.43h2.91l-72.52,172.21h-.24l-49-111.57-48.75,111.57h-.24L213.91,2.43h17.22l63.06,150.38,40.26-93.38-24.98-57h17.71l65,149.17L455,2.43Z"/><path d="m808.46,2.43c61.85,0,97.99,33.47,97.99,84.89s-36.14,84.89-97.99,84.89h-49.72V2.43h49.72Zm0,167.36c53.6,0,80.28-31.77,80.28-82.47s-26.68-82.47-80.28-82.47h-33.72v164.94h33.72Z"/><path d="m287.26,279.64v16.67h-4.18v-37.05h4.18v16.46h21.38v-16.46h4.18v37.05h-4.18v-16.67h-21.38Z"/><path d="m366.46,296.95c-11.27,0-18.85-8.84-18.85-19.11s7.68-19.21,18.95-19.21,18.84,8.84,18.84,19.11-7.68,19.21-18.95,19.21Zm0-34.46c-8.47,0-14.5,6.78-14.5,15.24s6.14,15.35,14.61,15.35,14.5-6.78,14.5-15.24-6.14-15.35-14.61-15.35Z"/><path d="m431.68,296.32h-4.23v-33.19h-12.44v-3.87h29.11v3.87h-12.44v33.19Z"/><path d="m504.68,263.07h-22.6v12.65h20.22v3.81h-20.22v12.97h22.87v3.81h-27.05v-37.05h26.78v3.81Z"/><path d="m539.31,259.26h4.18v33.19h20.86v3.87h-25.04v-37.05Z"/><path d="m611.3,275.78c8.26,1.8,12.07,4.82,12.07,10.53,0,6.4-5.3,10.53-12.65,10.53-5.88,0-10.69-1.96-15.14-5.93l2.59-3.07c3.86,3.49,7.57,5.24,12.7,5.24s8.26-2.59,8.26-6.35c0-3.49-1.85-5.45-9.63-7.09-8.52-1.85-12.44-4.6-12.44-10.75s5.13-10.16,12.17-10.16c5.4,0,9.27,1.53,13.02,4.55l-2.44,3.23c-3.44-2.81-6.88-4.02-10.69-4.02-4.82,0-7.89,2.65-7.89,6.03s1.91,5.51,10.06,7.25Z"/><path d="m639.73,0c-14.53,0-28.45,3.68-40.73,10.26,1.57.97,3.11,1.99,4.61,3.05,10.26-7.04,22.5-10.89,36.12-10.89,40.26,0,68.64,33.23,68.64,84.89s-28.38,84.89-68.64,84.89-68.64-33.23-68.64-84.89c0-28.03,8.37-50.62,22.45-65.44-1.77-1.69-3.65-3.22-5.57-4.65-20.73,15.5-34.58,40.37-34.58,70.09,0,50.69,40.26,87.32,86.35,87.32s86.35-36.62,86.35-87.32S685.81,0,639.73,0Z"/><path class="cls-1" d="m587.93,161.32c-10.25,7.04-22.48,10.89-36.1,10.89-40.26,0-68.64-33.23-68.64-84.89S511.57,2.43,551.83,2.43s68.64,33.23,68.64,84.89c0,28.03-8.37,50.62-22.44,65.44,1.77,1.68,3.63,3.22,5.57,4.65,20.73-15.5,34.58-40.37,34.58-70.09,0-50.69-40.26-87.32-86.35-87.32s-86.35,36.63-86.35,87.32,40.26,87.32,86.35,87.32c14.52,0,28.43-3.69,40.71-10.26-1.57-.97-3.11-1.99-4.61-3.06Z"/></g></svg>