<?xml version="1.0" encoding="UTF-8"?>
<svg id="Calque_1" xmlns="http://www.w3.org/2000/svg" xmlns:xlink="http://www.w3.org/1999/xlink" version="1.1" viewBox="0 0 83.9 100.5">
  <!-- Generator: Adobe Illustrator 29.4.0, SVG Export Plug-In . SVG Version: 2.1.0 Build 152)  -->
  <defs>
    <mask id="mask" x="-106.3" y="60.5" width="181.9" height="47" maskUnits="userSpaceOnUse">
      <g id="mask-6">
        <rect id="path-5" x="-106.3" y="60.5" width="181.9" height="47" fill="#fff"/>
      </g>
    </mask>
    <mask id="mask-1" x="4.6" y="48" width="181.9" height="47" maskUnits="userSpaceOnUse">
      <g id="mask-61" data-name="mask-6">
        <rect id="path-51" data-name="path-5" x="4.6" y="48" width="181.9" height="47" fill="#fff"/>
      </g>
    </mask>
    <mask id="mask-2" x="-135.7" y="1.8" width="360" height="93" maskUnits="userSpaceOnUse">
      <g id="mask-8">
        <rect id="path-7" x="-135.7" y="1.8" width="360" height="93" fill="#fff"/>
      </g>
    </mask>
    <mask id="mask-3" x="-135.7" y="1.8" width="360" height="93" maskUnits="userSpaceOnUse">
      <g id="mask-10">
        <rect id="path-9" x="-135.7" y="1.8" width="360" height="93" fill="#fff"/>
      </g>
    </mask>
    <mask id="mask-4" x="-135.7" y="1.8" width="360" height="93" maskUnits="userSpaceOnUse">
      <g id="mask-12">
        <rect id="path-11" x="-135.7" y="1.8" width="360" height="93" fill="#fff"/>
      </g>
    </mask>
    <mask id="mask-5" x="-135.7" y="1.8" width="360" height="93" maskUnits="userSpaceOnUse">
      <g id="mask-14">
        <rect id="path-13" x="-135.7" y="1.8" width="360" height="93" fill="#fff"/>
      </g>
    </mask>
    <mask id="mask-62" data-name="mask-6" x="-135.7" y="1.8" width="360" height="93" maskUnits="userSpaceOnUse">
      <g id="mask-16">
        <rect id="path-15" x="-135.7" y="1.8" width="360" height="93" fill="#fff"/>
      </g>
    </mask>
    <mask id="mask-7" x="-135.7" y="1.8" width="360" height="93" maskUnits="userSpaceOnUse">
      <g id="mask-18">
        <rect id="path-17" x="-135.7" y="1.8" width="360" height="93" fill="#fff"/>
      </g>
    </mask>
    <mask id="mask-81" data-name="mask-8" x="-135.7" y="1.8" width="360" height="93" maskUnits="userSpaceOnUse">
      <g id="mask-20">
        <rect id="path-19" x="-135.7" y="1.8" width="360" height="93" fill="#fff"/>
      </g>
    </mask>
    <mask id="mask-9" x="-135.7" y="1.8" width="360" height="93" maskUnits="userSpaceOnUse">
      <g id="mask-22">
        <rect id="path-21" x="-135.7" y="1.8" width="360" height="93" fill="#fff"/>
      </g>
    </mask>
    <mask id="mask-101" data-name="mask-10" x="-135.7" y="1.8" width="360" height="93" maskUnits="userSpaceOnUse">
      <g id="mask-24">
        <rect id="path-23" x="-135.7" y="1.8" width="360" height="93" fill="#fff"/>
      </g>
    </mask>
    <mask id="mask-11" x="-135.7" y="1.8" width="360" height="93" maskUnits="userSpaceOnUse">
      <g id="mask-26">
        <rect id="path-25" x="-135.7" y="1.8" width="360" height="93" fill="#fff"/>
      </g>
    </mask>
    <mask id="mask-121" data-name="mask-12" x="-135.7" y="1.8" width="360" height="93" maskUnits="userSpaceOnUse">
      <g id="mask-28">
        <rect id="path-27" x="-135.7" y="1.8" width="360" height="93" fill="#fff"/>
      </g>
    </mask>
    <mask id="mask-13" x="-135.7" y="1.8" width="360" height="93" maskUnits="userSpaceOnUse">
      <g id="mask-30">
        <rect id="path-29" x="-135.7" y="1.8" width="360" height="93" fill="#fff"/>
      </g>
    </mask>
    <mask id="mask-141" data-name="mask-14" x="-135.7" y="1.8" width="360" height="93" maskUnits="userSpaceOnUse">
      <g id="mask-32">
        <rect id="path-31" x="-135.7" y="1.8" width="360" height="93" fill="#fff"/>
      </g>
    </mask>
    <mask id="mask-15" x="-135.7" y="1.8" width="360" height="93" maskUnits="userSpaceOnUse">
      <g id="mask-34">
        <rect id="path-33" x="-135.7" y="1.8" width="360" height="93" fill="#fff"/>
      </g>
    </mask>
    <mask id="mask-161" data-name="mask-16" x="-135.7" y="1.8" width="360" height="93" maskUnits="userSpaceOnUse">
      <g id="mask-36">
        <rect id="path-35" x="-135.7" y="1.8" width="360" height="93" fill="#fff"/>
      </g>
    </mask>
    <mask id="mask-17" x="-135.7" y="1.8" width="360" height="93" maskUnits="userSpaceOnUse">
      <g id="mask-38">
        <rect id="path-37" x="-135.7" y="1.8" width="360" height="93" fill="#fff"/>
      </g>
    </mask>
    <mask id="mask-181" data-name="mask-18" x="-135.7" y="1.8" width="360" height="93" maskUnits="userSpaceOnUse">
      <g id="mask-40">
        <rect id="path-39" x="-135.7" y="1.8" width="360" height="93" fill="#fff"/>
      </g>
    </mask>
    <mask id="mask-19" x="-135.7" y="1.8" width="360" height="93" maskUnits="userSpaceOnUse">
      <g id="mask-42">
        <rect id="path-41" x="-135.7" y="1.8" width="360" height="93" fill="#fff"/>
      </g>
    </mask>
    <mask id="mask-201" data-name="mask-20" x="-135.7" y="1.8" width="360" height="93" maskUnits="userSpaceOnUse">
      <g id="mask-44">
        <rect id="path-43" x="-135.7" y="1.8" width="360" height="93" fill="#fff"/>
      </g>
    </mask>
    <mask id="mask-21" x="-135.7" y="1.8" width="360" height="93" maskUnits="userSpaceOnUse">
      <g id="mask-46">
        <rect id="path-45" x="-135.7" y="1.8" width="360" height="93" fill="#fff"/>
      </g>
    </mask>
    <mask id="mask-221" data-name="mask-22" x="-135.7" y="1.8" width="360" height="93" maskUnits="userSpaceOnUse">
      <g id="mask-48">
        <rect id="path-47" x="-135.7" y="1.8" width="360" height="93" fill="#fff"/>
      </g>
    </mask>
    <mask id="mask-23" x="-135.7" y="1.8" width="360" height="93" maskUnits="userSpaceOnUse">
      <g id="mask-50">
        <rect id="path-49" x="-135.7" y="1.8" width="360" height="93" fill="#fff"/>
      </g>
    </mask>
    <mask id="mask-241" data-name="mask-24" x="-135.7" y="1.8" width="360" height="93" maskUnits="userSpaceOnUse">
      <g id="mask-52">
        <rect id="path-51" x="-135.7" y="1.8" width="360" height="93" fill="#fff"/>
      </g>
    </mask>
    <mask id="mask-25" x="-135.7" y="1.8" width="360" height="93" maskUnits="userSpaceOnUse">
      <g id="mask-54">
        <rect id="path-53" x="-135.7" y="1.8" width="360" height="93" fill="#fff"/>
      </g>
    </mask>
    <mask id="mask-261" data-name="mask-26" x="-135.7" y="1.8" width="360" height="93" maskUnits="userSpaceOnUse">
      <g id="mask-56">
        <rect id="path-55" x="-135.7" y="1.8" width="360" height="93" fill="#fff"/>
      </g>
    </mask>
    <mask id="mask-27" x="-135.7" y="1.8" width="360" height="93" maskUnits="userSpaceOnUse">
      <g id="mask-58">
        <rect id="path-57" x="-135.7" y="1.8" width="360" height="93" fill="#fff"/>
      </g>
    </mask>
    <mask id="mask-281" data-name="mask-28" x="-135.7" y="1.8" width="360" height="93" maskUnits="userSpaceOnUse">
      <g id="mask-60">
        <rect id="path-59" x="-135.7" y="1.8" width="360" height="93" fill="#fff"/>
      </g>
    </mask>
    <mask id="mask-29" x="-135.7" y="1.8" width="360" height="93" maskUnits="userSpaceOnUse">
      <g id="mask-62">
        <rect id="path-61" x="-135.7" y="1.8" width="360" height="93" fill="#fff"/>
      </g>
    </mask>
    <mask id="mask-301" data-name="mask-30" x="-135.7" y="1.8" width="360" height="93" maskUnits="userSpaceOnUse">
      <g id="mask-64">
        <rect id="path-63" x="-135.7" y="1.8" width="360" height="93" fill="#fff"/>
      </g>
    </mask>
    <mask id="mask-31" x="-135.7" y="1.8" width="360" height="93" maskUnits="userSpaceOnUse">
      <g id="mask-66">
        <rect id="path-65" x="-135.7" y="1.8" width="360" height="93" fill="#fff"/>
      </g>
    </mask>
    <mask id="mask-321" data-name="mask-32" x="-135.7" y="1.8" width="360" height="93" maskUnits="userSpaceOnUse">
      <g id="mask-68">
        <rect id="path-67" x="-135.7" y="1.8" width="360" height="93" fill="#fff"/>
      </g>
    </mask>
    <mask id="mask-33" x="-135.7" y="1.7" width="360" height="93.1" maskUnits="userSpaceOnUse">
      <g id="mask-70">
        <rect id="path-69" x="-135.7" y="1.8" width="360" height="93" fill="#fff"/>
      </g>
    </mask>
  </defs>
  <g id="Clipped">
    <g mask="url(#mask)">
      <path id="Shape" d="M8.1,91.9c1.3,0,2.1-.3,2.6-.9.5-.5.8-1.3.8-2.1s-.3-1.5-.8-2.1c-.6-.6-1.3-.9-2.6-.9h-3.7v9.9h1.9v-4.1h1.8ZM6.3,90.2v-2.5h1.7c.6,0,1,.1,1.2.4.2.3.3.5.3.8s-.1.6-.3.8c-.3.3-.6.4-1.2.4h-1.7ZM13.7,96l.9-2.2h4l.9,2.2h2l-4.2-9.9h-1.3l-4.2,9.9h2.1ZM16.6,89.1l1.3,2.9h-2.5l1.2-2.9ZM26.3,91.6l3.5,4.4h2.4l-3.7-4.5c.4-.1.7-.3,1-.6.5-.5.9-1.2.9-2s-.3-1.5-.9-2c-.5-.5-1.2-.7-2.2-.7h-3.6v9.9h1.9v-4.4h.6ZM25.6,89.8v-2.1h1.6c.6,0,.8.1,1,.3.2.2.3.5.3.8s-.1.6-.3.8c-.2.2-.4.3-1,.3h-1.6ZM34.3,96h1.9v-9.9h-1.9v9.9ZM45.5,87.7v-1.7h-5.9v9.9h6v-1.7h-4.2v-2.8h3v-1.7h-3v-2.1h4ZM48.5,96h1.9v-6.5l5.5,6.5h1.3v-9.9h-1.9v6.5l-5.5-6.5h-1.3v9.9ZM59.8,86v1.7h2.6v8.2h1.9v-8.2h2.6v-1.7h-7.2ZM75.5,87.7v-1.7h-5.9v9.9h6v-1.7h-4.2v-2.8h3v-1.7h-3v-2.1h4Z"/>
    </g>
    <g mask="url(#mask-1)">
      <path id="Shape1" data-name="Shape" d="M5.9,73.5h-1.3v9.9h1.9v-5.6l2.4,3.9h1.3l2.4-3.9v5.6h1.9v-9.9h-1.3l-3.6,5.9-3.7-5.9ZM18.7,83.4l.9-2.2h4l.9,2.2h2l-4.2-9.9h-1.3l-4.2,9.9h2ZM21.6,76.6l1.3,2.9h-2.5l1.2-2.9ZM28.8,83.4h1.9v-9.9h-1.9v9.9ZM33.2,82.1c1,.9,2.2,1.5,3.5,1.5s3.3-1.2,3.3-3c0-3.4-4.6-2.8-4.6-4.5s.8-1.1,1.5-1.1,1.3.3,1.7.6l1-1.4c-.9-.7-1.9-.9-2.9-.9-1.6,0-3.3,1-3.3,2.8s.6,1.8,1.4,2.3c1.3.8,3.1.9,3.1,2.2s-.6,1.2-1.4,1.2-1.7-.5-2.3-1.1l-1.2,1.4ZM44.3,78.5c0-1.9,1.3-3.4,3.2-3.4s3.2,1.5,3.2,3.4-1.3,3.4-3.2,3.4-3.2-1.5-3.2-3.4M42.4,78.5c0,2.8,2.1,5.1,5.1,5.1s5.1-2.3,5.1-5.1-2.1-5.1-5.1-5.1-5.1,2.3-5.1,5.1M55.4,83.4h1.9v-6.5l5.5,6.5h1.3v-9.9h-1.9v6.5l-5.5-6.5h-1.3v9.9ZM66.6,82.1c1,.9,2.2,1.5,3.5,1.5s3.3-1.2,3.3-3c0-3.4-4.6-2.8-4.6-4.5s.8-1.1,1.5-1.1,1.3.3,1.7.6l1-1.4c-.9-.7-1.9-.9-2.9-.9-1.6,0-3.3,1-3.3,2.8s.6,1.8,1.4,2.3c1.3.8,3.1.9,3.1,2.2s-.6,1.2-1.4,1.2-1.7-.5-2.3-1.1l-1.2,1.4Z"/>
    </g>
  </g>
  <g id="LOGO-Maison-Pariente">
    <g id="Clipped1" data-name="Clipped">
      <g mask="url(#mask-2)">
        <path id="Path" d="M42.3,64.1l.5-.9.5-.9.3-1v-1.1c0-.1-.1-.1-.1-.1-.3.1-.5.3-.8.5l-.8,1.3v.9c-.1,0-.1.8-.1.8v-.5c-.1,0-.1-.1-.3-.1l-.3-.4h-.1c0-.1-.3-.4-.3-.4q-.1-.1-.3-.1h-.3c0-.1,0,.3,0,.3v.5c.1,0,.5.6.5.6l.5.6h-.5c0-.1-.3-.3-.3-.3h-.1q-.1,0-.1.1v.3l.5.3.5.3.4.4h0v.3h0v.3h.5v-.4c-.1,0-.1-.3-.1-.3v-.8Z"/>
      </g>
    </g>
    <g id="Clipped2" data-name="Clipped">
      <g mask="url(#mask-3)">
        <path id="Path1" data-name="Path" d="M46.7,55.5h0c.1.5,0,1-.3,1.5l-.5.4c-.1,0-.1.1-.3.1l-.5.3h-.1l-.3.3h-.8v-1.4c.1,0,.8-.8.8-.8l.3-.3h.3c.1-.1.1-.3.3-.3h.3q.1-.1.3-.1h.1q.1,0,.3.1h.3Z"/>
      </g>
    </g>
    <g id="Clipped3" data-name="Clipped">
      <g mask="url(#mask-4)">
        <path id="Path2" data-name="Path" d="M29,55.2h-.3c-.1.1-.3.3-.4.3-.3,0-.4,0-.6-.1h-.6c0-.1-.6,0-.6,0h-.8c0-.1-.4-.3-.4-.3-.5-.3-1-.4-1.4-.8l-.3-.3-.8-.6-.6-.6h.8c0-.1.1-.1.1-.1h2.3c.3.1.4.1.6.3h.4c.1.1.3.3.4.3l.4.3c.1.1.3.3.4.4l.3.4.5.5.4.3.3.3Z"/>
      </g>
    </g>
    <g id="Clipped4" data-name="Clipped">
      <g mask="url(#mask-5)">
        <path id="Path3" data-name="Path" d="M29,55.2h-.3c-.1.1-.3.3-.4.3-.3,0-.4,0-.6-.1h-.6c0-.1-.6,0-.6,0h-.8c0-.1-.4-.3-.4-.3-.5-.3-1-.4-1.4-.8l-.3-.3-.8-.6-.6-.6h.8c0-.1.1-.1.1-.1h2.3c.3.1.4.1.6.3h.4c.1.1.3.3.4.3l.4.3c.1.1.3.3.4.4l.3.4.5.5.4.3.3.3Z"/>
      </g>
    </g>
    <g id="Clipped5" data-name="Clipped">
      <g mask="url(#mask-62)">
        <path id="Path4" data-name="Path" d="M31,57.8l.5-.4c.4-.1.8-.3,1.1-.3h.3c.5,0,1,.1,1.4.3l.8.4.4.3.4.3v-.4l-.5-.8v-.4c-.1,0-.1-.6-.1-.6v-.6h.3c.1.1.4.1.4.4s.1.1.1.3v.3c.1.1.3.1.3.3v.8h0c0,.1-.1.5-.1.5v.3c-.1,0-.1.3-.1.3h0c0,.1.8.5.8.5l.5.6v.6c.1,0,0,.6,0,.6h-.1c0-.1-.1-.3-.1-.3h-.1c-.1-.1-.1-.3-.3-.3h-.1c-.1-.1-.1-.3-.1-.4v-.3c-.1,0-.1-.1-.3-.1v-.3c-.1,0-.3-.4-.3-.4v-.5h-.5l-.8.3h-.4c0,.1-.9.3-.9.3h-1.8c0-.1-.6-.4-.6-.4l-.5-.4.3-.3h.4Z"/>
      </g>
    </g>
    <g id="Clipped6" data-name="Clipped">
      <g mask="url(#mask-7)">
        <path id="Path5" data-name="Path" d="M43.9,37.1h.3c0,.1.9-2.7.9-2.7l.6-.4.9-.4.6-.5,1.1-1.4.6-.6.3-.3c.3-.1.4-.4.5-.6.1-.3.3-.5.4-.9v-.5c.1-.3.3-.5.3-.8v-.3c0-.5-.1-1-.4-1.4v-.3c-.1,0-.5-.6-.5-.6v-.8l-.4.3-1.3.6-1,.5c-.5.3-.9.6-1.3,1-.4.5-.8,1-.9,1.5v.4c-.3.3-.3.5-.3.6v.5c-.3.4-.3.8-.3,1.1v1.5c.1.3.3.6.4.9v.3c.1,0,.3.3.3.3l-.6,1.8v.6c-.1,0-.3.4-.3.4Z"/>
      </g>
    </g>
    <g id="Clipped7" data-name="Clipped">
      <g mask="url(#mask-81)">
        <path id="Path6" data-name="Path" d="M29,48.2h.6c0-.1.1-.3.4-.3s.1.1.1.1l.3.5v.3h.3c.1,0,.1-.1.1-.1v-.4c.1,0,.1-.1.1-.1.1-.1.4-.1.5,0l.3.5.4,1.3h.1c.1-.3.1-.4.3-.5h0q0-.1.1-.3h0c0-.3.1-.4.3-.5h.1c0-.1.3-.4.3-.4h.1c.1,0,.3,0,.3.1h0v.5h.3c.1,0,.3.1.3.3h0c0,.1-.6,1.5-.6,1.5v1c-.1,0,.1.4.1.4l.9,1,.3.3h0q0,.3-.1.3l-.3-.3-.4-.4-.4-.4-.4-.3-.4-.3h-.1c-.3,0-.5.1-.6.3h-.1c0,.1-.9.8-.9.8h-.3q-.1.1-.3.1h-.1c-.1,0-.1-.1-.1-.3h0c0-.1-.3-.1-.3-.1h0c-.1,0-.3-.1-.3-.1h0c0-.1,0-.3.1-.4h.1q.1-.3.3-.4l.4-.3.5-.4h.1c0-.1-.1-.3-.1-.3h-.8c0,.1-.1.3-.1.3-.3.1-.5.1-.8.1h-.4v-.3h-.4c0-.1.1-.4.1-.4h.4c0-.1.4-.3.4-.3h.4c0-.1-.4-.4-.4-.4h-.4c0-.1-.3-.3-.3-.3h-.1c0-.1-.1-.3,0-.4h0c0-.1.1-.1.3-.3h.3v-.3c-.1,0-.4-.1-.4-.1h0v-.8h0Z"/>
      </g>
    </g>
    <polygon id="Path7" data-name="Path" points="59.9 31.4 60.2 31.2 60.3 31.1 61.3 30.5 62.1 29.7 63.2 28.7 64.3 27.5 64.5 27.1 64.5 26.6 64.1 25.9 63.4 25.5 61.5 25.2 61.1 25.1 60.8 25 60.6 24.6 60.8 24.1 61.2 23.7 61.7 23.3 62 23 62.1 22.8 62.6 22.3 63.2 22 64 21.9 64.8 21.8 65.4 21.6 65.9 21.9 66.2 21.9 66.3 21.9 66.5 21.9 67.3 22.3 67.7 22.4 68.6 22.7 69.5 23.3 69.5 23.3 69.5 23.4 70 24.3 70 24.6 70 24.7 70.1 25.5 70.5 26.4 70.2 26.8 70.2 26.9 70.2 27.1 70.2 27.6 69.7 28.4 69.6 29.1 69.3 29.4 69.1 29.6 68.8 29.8 68.3 30.1 67.9 29.8 67.6 29.4 67.3 28.8 67.1 28 66.5 27.4 65.5 27 64.6 27.5 62.6 29.7 61.8 30.3 61.1 30.8 60.3 31.5 60.2 31.5 60.1 31.5 59.9 31.4"/>
    <g id="Clipped8" data-name="Clipped">
      <g mask="url(#mask-9)">
        <path id="Path8" data-name="Path" d="M47.9,54.6h0l.3-.4,1-.8,1.1-.8.6-.8v-.5c.3-.3.3-.6.1-.9-.1-.1-.3-.3-.4-.1h-.4c-.3.1-.4.3-.5.5l-.6.6-.4.9v.8c-.1,0-.4.6-.4.6l-.5.8h0Z"/>
      </g>
    </g>
    <polygon id="Path9" data-name="Path" points="64.6 50.8 64.3 50.6 63.9 50.5 63.4 50.5 63 50.6 62.1 50.9 60.6 51.4 60.1 51.8 59.6 52.4 58.7 53.7 58.5 54.7 59.3 54.5 60.1 54 61.7 53.1 62.7 52.2 63.5 51.2 63.7 51 63.9 50.9 64.6 50.8"/>
    <polygon id="Path10" data-name="Path" points="64.6 50.8 64.3 50.6 63.9 50.5 63.4 50.5 63 50.6 62.1 50.9 60.6 51.4 60.1 51.8 59.6 52.4 58.7 53.7 58.5 54.7 59.3 54.5 60.1 54 61.7 53.1 62.7 52.2 63.5 51.2 63.7 51 63.9 50.9 64.6 50.8"/>
    <g id="Group">
      <g id="Clipped9" data-name="Clipped">
        <g mask="url(#mask-101)">
          <path id="Path11" data-name="Path" d="M41.9,35.8l-.4.4-.5.4-.4.5-.3.6-.4,1.3-.6,2.4v1.1l.4,1,1,2.4,1,1,.4-1.3v-1.7l.3-2.2v-2.2c-.1-.3-.3-.5-.3-.8l-.4-1.1c-.1-.3-.1-.5-.1-.8v-.4l.3-.9Z"/>
        </g>
      </g>
      <g id="Clipped10" data-name="Clipped">
        <g mask="url(#mask-11)">
          <path id="Path12" data-name="Path" d="M23.7,29.7l1.1.3,1.1.4c0-.1.1-.1.3,0l2.2,1.8,1.5,2.6c0-.1.1,0,.3,0l.3.8v1c.1,0,.1,1,.1,1v1c.1,0,0,0,0,0h-.1v-.5c-.1,0-.5-.4-.5-.4l-.5-.3h-.5c0-.1-2.2-1.1-2.2-1.1l-1.7-1.8-.8-1.7-.5-1.8v-.5c-.1,0-.3-.5-.3-.5v-.6c-.1,0,.1.4.1.4Z"/>
        </g>
      </g>
      <g id="Clipped11" data-name="Clipped">
        <g mask="url(#mask-121)">
          <path id="Path13" data-name="Path" d="M18.1,43.6h-.3c0,.1-.1.1-.1.3v.3c-.1,0-.1.1-.1.1h0v.3h0c0,.1-.1.4-.1.4h0v.3s0,.1.1.1h.1c0,.1.1.3.1.3h0v.3l.4.6h0l.4.4s.1.1,0,.3c-.1.3,0,.6.1.9,0,.1.1.1.1.1h.1c.4.1.9.1,1.3,0h.6c0-.1.3-.1.3-.1q.1,0,.3.1h0v.8h0c.1.3.3.4.4.4h.5q0-.1.1-.1l.8-.6.3-.3c.1-.1.3,0,.4.1h0c0,.3.1.3.3.3h.8c0,.1.1.1.1.1h.3c.1,0,.3-.1.3-.3v-.3h0c0-.1-.3-.5-.3-.5h0v-.5h0c-.1-.3-.3-.4-.5-.5-.1,0-.1-.1-.1-.1h-.1v-.6h0v-.5q-.1,0-.1-.1l-.3-.4h-.1c-.1-.1-.4-.1-.6-.1h-.5c0-.1-.1-.3-.1-.3h0c-.1-.4-.1-.5-.3-.8h-.1q0-.1-.1-.1h-.3c-.1-.3-.4-.3-.5-.3h-.5q-.1.1-.3.1h-.1c0-.1-.3-.4-.3-.4h-.1c0-.1-.3-.1-.3-.1h-.4c0,.1-.1.1-.1.1h-.4c0-.1-.1-.1-.1-.1h-.1s-.1,0-.1.1h-.1c0,.1-.1.3-.1.3,0,0-.1,0-.1.1h-.1Z"/>
        </g>
      </g>
      <g id="Clipped12" data-name="Clipped">
        <g mask="url(#mask-13)">
          <path id="Path14" data-name="Path" d="M24.2,26.6l-5.7-6.1c-.1-.1-.4-.4-.5-.6l-.6-1c-.3-.4-.4-.9-.5-1.3l-.3-1.1c0-.3,0-.5.1-.8.3-.1.5-.3.8-.3h.4c.8,0,1.4.3,2,.6l.4.3c.3.3.6.5.8.8h0l.8-2v-.4c.4-.4.6-.6,1-.9h.1c.1-.3.3-.3.4-.3.3,0,.4.1.5.3h0q.1.1.1.3l.4,1c.4.9.5,1.8.6,2.7.1.8.1,1.7,0,2.4l-.3,2.4-.9,3.4h-.1c0,.1.5.6.5.6Z"/>
        </g>
      </g>
      <g id="Clipped13" data-name="Clipped">
        <g mask="url(#mask-141)">
          <path id="Path15" data-name="Path" d="M34,19.9v-.4c-.1,0-.4-.3-.4-.3h-1.5l-3.2-1.3-1-.9-1-.9-.8-1.1-.5-1.3-.4-1.7v-1.7c.1,0,.4-1.1.4-1.1v-1.1c.1,0,1.1-.1,1.1-.1l1.9.3h.1c.5.1,1.1.3,1.7.4h.1c1.1.5,2,1.3,2.8,2.2h0c.5.6.8,1.3,1,1.9v.4c.4.9.5,1.7.5,2.6v1.4c-.1,0-.9,1.3-.9,1.3v.8c.1,0,.8,1.4.8,1.4l-.3.3-.5-.5v-.4Z"/>
        </g>
      </g>
      <g id="Clipped14" data-name="Clipped">
        <g mask="url(#mask-15)">
          <path id="Path16" data-name="Path" d="M44.9,24.6l7-2.4,1.8-1,1.4-1.5v-.5c-.1,0-1-.5-1-.5-.3-.1-.6-.3-.9-.1h-1.3c0,.1-.5.4-.5.4l.5-1.7v-.8c.1,0-.1-.6-.1-.6l-.4-.3h-.5c0,.1-.9.8-.9.8-.6.5-1.3,1-1.8,1.7-.5.5-.9,1.1-1.3,1.8l-.6,1c-.3.5-.5,1-.8,1.5l-.9,2h0c0,.1.3.3.3.3Z"/>
        </g>
      </g>
      <g id="Clipped15" data-name="Clipped">
        <g mask="url(#mask-161)">
          <path id="Path17" data-name="Path" d="M23.5,35.4l-.4-.3-1.9-1.5-2.2-2.4-.3-1,1.3-1.1h1.9c0-.1.8-.4.8-.4v-.9l-.9-.8-.5-.6-1.1-.9-1.5-.4h-1.4c0,.1-.4.1-.4.1h-.5c0,.1-.1.1-.1.1l-.8.3h-.1l-1.5.8c-.1.1-.3.3-.4.4l-.4.8c0,.1-.1.3-.1.4h0v.3l-.4,1.3v1.1l.3,1.1.3.5.4.9.4.4h1c0,.1.6-.9.6-.9l.5-.9c.3-.4.6-.5,1-.5h1.4c0,.1,1.4,1.7,1.4,1.7l1.4,1.4,1.7,1.3h.6Z"/>
        </g>
      </g>
      <g id="Clipped16" data-name="Clipped">
        <g mask="url(#mask-17)">
          <path id="Path18" data-name="Path" d="M26.1,41.2v.3c-.1,0-2.5-1.3-2.5-1.3l-1,.4c-.4.1-.8.3-1.1.3h-2.7c0-.1-.4-.1-.4-.1-.8,0-1.4-.3-2-.8h-.1c-.6-.6-1.1-1.3-1.3-2v-.4c-.1,0-.6-.4-.6-.4l1.7-.5,3.4-.5,2.5,1.4,1.5,1.8.4.8,1.5.8.8.4Z"/>
        </g>
      </g>
      <g id="Clipped17" data-name="Clipped">
        <g mask="url(#mask-181)">
          <path id="Path19" data-name="Path" d="M32.6,29.6h.4c0-.1-1-1.8-1-1.8l-.5-.8h2c0,.1,1.5-.6,1.5-.6v-.6c.1,0-.1-.3-.1-.3-.4-.4-.6-.9-.6-1.4v-.8c-.1,0-.3-.5-.3-.5v-.4q.1-.1,0-.1h-1.5c0,.1-.6.4-.6.4l-.5-.5c-.3-.3-.6-.5-1-.8h0c-.3-.1-.4-.3-.5-.4l-.9-.6c-.4-.3-.9-.5-1.3-.6h-.1v1.8l-.3,2.7.4,1.3-1,.9v.4l.5.6-.3.6,1.1.6,1.1.6,1.3-.8.8-1.4.8,1.1.6,1.3Z"/>
        </g>
      </g>
      <g id="Clipped18" data-name="Clipped">
        <g mask="url(#mask-19)">
          <path id="Path20" data-name="Path" d="M40.5,59.6l.3-1.1v-.6c.3-.9.4-1.8.3-2.6v-.4s0-.1-.1-.1h-.3l-.6.6c-.1.1-.1.3-.1.4l-.5-.6-.5-.3h-.1c-.1.1-.1.3-.1.4l.4,1.7,1.5,2.3v.4Z"/>
        </g>
      </g>
      <g id="Clipped19" data-name="Clipped">
        <g mask="url(#mask-201)">
          <path id="Path21" data-name="Path" d="M57.5,37.9v.3c.1,0,2.9-1.5,2.9-1.5l1.8.6h3.7c0-.1,1.8-.3,1.8-.3l2.4-1.8.5-1.8.5-.4h0c0-.1-1.3-.5-1.3-.5-.4-.1-.6-.1-1-.3h-1.3c-1.4-.3-2.8,0-4.1.6-.6.4-1.3.9-1.8,1.5l-1,1.1-.5.9-1.8.9-.9.5Z"/>
        </g>
      </g>
      <g id="Clipped20" data-name="Clipped">
        <g mask="url(#mask-21)">
          <path id="Path22" data-name="Path" d="M53.1,53.3h0l1.3-1.1h0c.6,0,1.3-.1,1.9-.4h0l.9-.4h.3c.4-.3.8-.6.9-1l.5-.8v-1c-.1,0,.1-.4.1-.4h-1.1c0,.1-2,.6-2,.6l-1.1,1.4-.5,1.4v.5l-.8.8-.3.4Z"/>
        </g>
      </g>
      <g id="Clipped21" data-name="Clipped">
        <g mask="url(#mask-221)">
          <path id="Path23" data-name="Path" d="M54,45.9l.4-.8h0l.4-.6c0-.1.1-.1.3,0h.1c0,.1.5.4.5.4h1.1c0,.1.1.1.1.1l2-2h0c0-.1.4-1.8.4-1.8l.3-1c0-.1-.1-.3-.1-.1h-.6c0,.1-1.4,0-1.4,0h-1.4q0-.1-.1-.1l-1.3.9h0l-.9,1.3h0c0,.1.1,1.1.1,1.1h0c0,.1.5.8.5.8h0v.4c.1,0,.1.1.1.1l-.5,1.1c-.1.1-.1.3,0,.3h0Z"/>
        </g>
      </g>
      <g id="Clipped22" data-name="Clipped">
        <g mask="url(#mask-23)">
          <path id="Path24" data-name="Path" d="M38.7,23.6l.3-.5h0l.5-.8c.1-.1.3-.3.4-.1h.1c0,.1.8.6.8.6h.3c1,.1,1.9-.1,2.7-.9l1-1c.6-.6,1-1.5,1.3-2.4l.3-1.1.3-1.3c0-.3-.1-.4-.4-.4h-.8c0,.1-.1.1-.1.1h-1.9c0-.1-1.3-.3-1.3-.3-.5,0-1,.1-1.5.4l-.9.6c-.3.1-.5.4-.6.8l-.6.9c-.3.5-.4,1-.4,1.5s.3.9.5,1.3l.4.4h.1c.1.3.1.4,0,.5l-.5,1.1c.1.3.1.4.3.5h0Z"/>
        </g>
      </g>
    </g>
    <polygon id="Path25" data-name="Path" points="56.2 20.6 55.2 16.7 56.1 14 56.4 14.2 56.8 12.8 57.3 12.4 57.6 12.7 58.8 11.7 59.6 11.8 60.4 11.4 60.8 12.1 61.7 11.8 62.2 12.3 63.4 12.8 63.9 14 64.6 14.4 64.5 15.4 64.9 15.8 64.5 16.5 63.5 18.1 63.9 19 62.7 19.5 62.9 20.6 61.6 20.9 59.9 21.6 59.9 21.9 59.4 22 58.2 21.4 57.4 21.5 56.2 20.6"/>
    <polygon id="Path26" data-name="Path" points="67.2 46 67.8 45.9 67.8 45.8 68.2 44.9 68.3 43.7 68.3 43.2 68.1 42.3 67.7 41.6 66.9 41.1 66.4 40.7 66.3 40.6 65.1 39.9 64.4 40.2 63.2 39.9 62.9 39.9 62.2 40.2 61.6 40.9 61.2 41.3 61 41.8 60.7 42.2 60.6 42.3 60.8 43.1 62.2 43.2 63.4 43.5 63.5 44.5 62.9 45.7 62.1 46.7 61.3 47.4 61 47.7 60.8 47.8 61.1 48 61.6 47.6 62.6 46.4 63.7 44.5 64.5 44.4 65 45.5 65 47.3 65.5 47.6 66.8 46.9 67.2 46"/>
    <polygon id="Path27" data-name="Path" points="43.4 54.2 43.2 53.3 43.3 52.4 43 51.9 43 51.2 43.8 49.1 44.7 47.6 45.1 49.1 45.2 50.8 44.8 52.4 43.9 53.5 43.4 54.2"/>
    <polygon id="Path28" data-name="Path" points="43.4 54.2 43.2 53.3 43.3 52.4 43 51.9 43 51.2 43.8 49.1 44.7 47.6 45.1 49.1 45.2 50.8 44.8 52.4 43.9 53.5 43.4 54.2"/>
    <g id="Group1" data-name="Group">
      <g id="Clipped23" data-name="Clipped">
        <g mask="url(#mask-241)">
          <path id="Path29" data-name="Path" d="M36.4,40.2v-.4c-.1,0-1.9-.9-1.9-.9-.5-.3-.9-.6-1.3-1-.3-.4-.5-.8-.6-1.1v-.4c-.3-.4-.3-.6-.3-1v-1.5c0-.5-.1-1.1.1-1.7l.3-.5,1.1.3,2.3,1.8,1.4,2.2-.4,3.1-.5.6v1.4c.1,0,0,.1,0,.1l-.3-.9Z"/>
        </g>
      </g>
      <g id="Clipped24" data-name="Clipped">
        <g mask="url(#mask-25)">
          <path id="Path30" data-name="Path" d="M55.9,7.1l-.3-1.9-2.5.4c-.3,0-.6.1-.9.3l-2.4.9c-.4.1-.9.4-1.1.8l-1.3.9c-.5.5-.9,1-1.1,1.7-.3.8-.3,1.5,0,2.3v.5c.1,0-1.3.3-1.3.3h-.4v.3c.1,0,2.4.1,2.4.1l4.4.5,3.7-3.6c.5-.6.9-1.4.8-2.2v-1.1Z"/>
        </g>
      </g>
    </g>
    <polygon id="Path31" data-name="Path" points="51.2 43.1 49.9 43.7 49.8 43.6 47.7 46.8 47.6 46.7 47.6 48.1 47.7 49.5 47.9 49.4 48.1 48.7 48.7 48.5 51 46.3 51.5 44 51.5 43.2 51.5 42.9 51.2 43.1"/>
    <g id="Group2" data-name="Group">
      <g id="Clipped25" data-name="Clipped">
        <g mask="url(#mask-261)">
          <path id="Path32" data-name="Path" d="M47.1,59.6l1.1-1.8.9-.8,2-1,2.9-.9-.9,2h0c-.3.5-.6,1-1.3,1.3l-.5.3c-.1.1-.3.1-.5.1h-.3c-.9,0-1.8.3-2.7.5h-.5c0,.1-.1.5-.1.5l-.5,1v-.3c-.1,0,0-.3,0-.3l.3-.8Z"/>
        </g>
      </g>
      <g id="Clipped26" data-name="Clipped">
        <g mask="url(#mask-27)">
          <path id="Path33" data-name="Path" d="M59.8,24.2h-.4l-.4.3h-.3v-.6h-.6c0,.1-.6,1-.6,1l-.3.4-.3-.3v-.8c-.1,0-.3-.3-.3-.3-.1-.3-.4-.3-.5,0l-.5.9-.8,1.8-.3-.5v-.6c-.1,0-.4-.6-.4-.6l-.4-.5-.4-.4c-.3,0-.5.1-.6.4h0v.5h-.9v.8l.9,2.2v1.5c.1,0-.4.6-.4.6l-1.5,1.4-.5.4-.3.4h.4c0-.1.4-.5.4-.5l.6-.6.6-.6.5-.4.6-.3h.8c0,.1.6.6.6.6l1.3,1,.6.4h.6v-.6h.8l.4-.6-.6-.6-.8-.5-.8-.5v-.3c-.1,0,.1-.1.1-.1h.5c0,.1.5.4.5.4l.8.4h.9c0,.1.3.1.3.1v-.3c.1,0,.1-.3.1-.3h.1c0-.1.3-.1.3-.1v-.3c.1,0-.1-.5-.1-.5l-.5-.4-.6-.3-.6-.3.5-.3h.6c0-.1.5-.4.5-.4l.4-.4v-.5c-.1,0-.8-.3-.8-.3l.3-.4.4-.3h.1v-.3h-.3Z"/>
        </g>
      </g>
      <g id="Clipped27" data-name="Clipped">
        <g mask="url(#mask-281)">
          <path id="Path34" data-name="Path" d="M44.4,43c0-1.1.4-2.3.9-3.3.6-1,1.4-1.9,2.2-2.7.3,1.3.1,2.7-.1,4-.1.6-.3,1.3-.6,1.8-.1.3-.3.5-.5.6-.3.3-.4.6-.6.9-.1.1-.3.4-.4.5s-.4.5-.5.4c-.1,0-.1-.5-.1-.6,0-.3-.1-.5-.1-.8.1-.1,0-.4,0-.8"/>
        </g>
      </g>
      <g id="Clipped28" data-name="Clipped">
        <g mask="url(#mask-29)">
          <path id="Path35" data-name="Path" d="M52.3,39.4c1.4-.1,2.8-.9,3.6-2.2.8-1.1,1-2.7.5-4.1-1.5-.8-3.6-.5-4.8.6-1.3,1.1-1.9,2.9-1.4,4.6.1.3.3.5.3.8s-.1.5-.1.6c.3,0,.5-.3.8-.4h1.3"/>
        </g>
      </g>
      <g id="Clipped29" data-name="Clipped">
        <g mask="url(#mask-301)">
          <path id="Path36" data-name="Path" d="M40.5,49.4c0-.3-.1-.4-.3-.6-.1-.1-.4-.3-.5-.3-.3,0-.5.3-.8.5-.1.3-.3.5-.5.6-.1-1-.4-2-.6-3.2,0-.3-.1-.5-.3-.8-.1-.3-.4-.4-.6-.4s-.5.3-.6.5c-.1.3-.1.5,0,.8.1.6.6,1.1,1.1,1.7.4.5.9,1.1.9,1.8-.3-.3-.4-.6-.8-.8-.3-.1-.8-.3-1,.1-.3.3-.1.6,0,1,.3.3.5.5.8.6.3.1.6.3.9.6.3.3.3.5.3.8v.8h.3c0-.5-.1-1.5,0-1.7.1-.3.5-.4.8-.5.6-.4,1-1,1-1.7"/>
        </g>
      </g>
      <g id="Clipped30" data-name="Clipped">
        <g mask="url(#mask-31)">
          <path id="Path37" data-name="Path" d="M42.1,30.3c-.1-.4,0-.8.1-1.1.1-.4.4-.6.4-1,.1-.4,0-.8-.4-1-.3-.1-.8,0-1-.3-.3-.1-.3-.5-.3-.8v-.8c-.1-.4-.4-.6-.8-.8-.4-.1-.6.3-.9.3s-.3-.1-.4-.3c-.6-.4-1.7-.1-1.3,1.4h0c0,.1-.9.6-.9.6l.3,1.1c-.4.4-.8,1-.6,1.5.1.6.5,1.1,1.1,1.4-.4.4-.4,1.1,0,1.7.4.5,1,.8,1.5.9-.3.1-.1.4,0,.5s.4.3.5.4c.5.3.9.8,1,1.3h.3s-.1-.3-.1-.5.1-.3.1-.4h0c.3-.3.9-.5.9-.8s0-.5-.5-.5c.1-.3.3-.6.4-.9.3-.3.5-.4.8-.5.3-.1.5-.4.5-.6-.1-.3-.6-.5-.8-.9"/>
        </g>
      </g>
      <g id="Clipped31" data-name="Clipped">
        <g mask="url(#mask-321)">
          <path id="Path38" data-name="Path" d="M30.4,44.1s-.4,1,0,1.4c.4.4.3.5,1.1.6.5,0,.6-.6.6-.6h.4c.4.3.8.1.9-.3v-.3c.1,0,.8.8.9,1.5h.3c0-.1-.1-.9-.8-1.8,0,0-.8-1.3-1.3-1.4,0,0,1.4.3,1.5.1.3-.1.8-1,.6-1.1-.4-.4-.6-.6-.6-.6,0,0-.1-.4-.1-.5-.3-.4-.6-.6-.9-.6s-.5-.1-1,.6c-.5.8-.6.9-.6.9,0,0,.4-1.1.1-1.8,0-.1-.9-1-1.4-.6-.5.4-.5.6-.5.6,0,0-1-.6-1.1.1-.4,1.3-.1,1.1.6,1.5.5.3.9.5.9.5,0,0-1.4-.3-1.8-.1-.4.1-1,.5-1,1.1.1.6.6.9.6.9,0,0-.1.8.4,1,.5.4,1,.1,1.3-.3.5-.6.9-1.1.9-1"/>
        </g>
      </g>
      <g id="Clipped32" data-name="Clipped">
        <g mask="url(#mask-33)">
          <path id="Path39" data-name="Path" d="M44,1.8c-1.1.8-2.3,1.5-3.4,2.2-.1-.1-.3,0-.3,0q-.1.1-.1.3c-1.1,2.3-2.2,4.6-3.3,6.9-.1,0-.3-.1-.3-.1,0,.6-.1,1.3-.1,1.9,0,1,.1,2.2.4,3.2,0,.1.3,1,.5,1.4l.4-.4c-.1-.5-.3-1.1-.3-1.4.1-.4.5-.5.8-.6,1.3-.5,2.3-1.4,3.2-2.4.8-.8,1.4-1.5,1.9-2.4.8-1.3,1.1-2.8,1.3-4.3.1-1.4.1-2.8,0-4.2h-.6Z"/>
        </g>
      </g>
    </g>
  </g>
</svg>